<svg xmlns="http://www.w3.org/2000/svg" style="display: none;">

  <symbol id="zoom" viewBox="0 0 18 18">
    <path fill-rule="evenodd" clip-rule="evenodd" d="M16.2 8.1C16.2 8.33869 16.2948 8.56761 16.4636 8.7364C16.6324 8.90518 16.8613 9 17.1 9C17.3387 9 17.5676 8.90518 17.7364 8.7364C17.9052 8.56761 18 8.33869 18 8.1V0.9C18 0.661305 17.9052 0.432387 17.7364 0.263604C17.5676 0.0948211 17.3387 0 17.1 0H9.9C9.66131 0 9.43239 0.0948211 9.2636 0.263604C9.09482 0.432387 9 0.661305 9 0.9C9 1.13869 9.09482 1.36761 9.2636 1.5364C9.43239 1.70518 9.66131 1.8 9.9 1.8H16.2V8.1ZM1.8 9.9C1.8 9.6613 1.70518 9.43239 1.5364 9.2636C1.36761 9.09482 1.13869 9 0.9 9C0.661306 9 0.432386 9.09482 0.263603 9.2636C0.09482 9.43239 0 9.6613 0 9.9V17.1C0 17.3387 0.09482 17.5676 0.263603 17.7364C0.432386 17.9052 0.661306 18 0.9 18H8.1C8.3387 18 8.56761 17.9052 8.7364 17.7364C8.90518 17.5676 9 17.3387 9 17.1C9 16.8613 8.90518 16.6324 8.7364 16.4636C8.56761 16.2948 8.3387 16.2 8.1 16.2H1.8V9.9Z" fill="currentColor"/>
  </symbol>

  <symbol id="heart" viewBox="0 0 16.5 14.68">
    <path d="M15.1911 1.4366C14.3369 0.510211 13.1649 0 11.8907 0C10.9383 0 10.066 0.301125 9.29811 0.894931C8.91064 1.19464 8.55954 1.56138 8.25 1.98935C7.94056 1.56147 7.58936 1.19464 7.20177 0.894931C6.43397 0.301125 5.56172 0 4.60927 0C3.33506 0 2.16295 0.510211 1.30882 1.4366C0.4649 2.35215 0 3.60296 0 4.95873C0 6.35414 0.52004 7.63154 1.6365 8.97874C2.63526 10.1839 4.07073 11.4072 5.73304 12.8238C6.30068 13.3076 6.94408 13.8559 7.61214 14.44C7.78866 14.5946 8.01535 14.6798 8.25 14.6797C8.48477 14.6797 8.71136 14.5946 8.8876 14.4403C9.55566 13.856 10.1994 13.3074 10.7673 12.8234C12.4294 11.407 13.8648 10.1839 14.8636 8.97861C15.9801 7.63157 16.5 6.35418 16.5 4.9586C16.5 3.60296 16.0351 2.35215 15.1911 1.4366Z" fill="currentColor"/>
  </symbol>

  <symbol id="ok" viewBox="0 0 10.5 7.67">
    <path fill-rule="evenodd" clip-rule="evenodd" d="M10.3078 0.192233C10.4309 0.315475 10.5 0.482547 10.5 0.656734C10.5 0.830922 10.4309 0.997985 10.3078 1.12124L3.95378 7.47526C3.83053 7.59831 3.66346 7.66746 3.48928 7.66746C3.31509 7.66746 3.14802 7.59831 3.02478 7.47526L0.17642 4.6269C0.0603118 4.5023 -0.00289542 4.33749 0.000101931 4.1672C0.00310804 3.99691 0.0720908 3.83444 0.192528 3.714C0.312956 3.59357 0.475435 3.52459 0.645723 3.52158C0.816011 3.51858 0.980813 3.58179 1.10542 3.6979L3.48928 6.08176L9.3788 0.192233C9.50202 0.0691404 9.66907 0 9.8433 0C10.0174 0 10.1846 0.0691404 10.3078 0.192233Z" fill="currentColor"/>
  </symbol>

  <symbol id="arrow" viewBox="0 0 5.17 9">
    <path d="M5.16595 4.47946C5.16644 4.56441 5.15016 4.64861 5.11804 4.72724C5.08592 4.80588 5.0386 4.8774 4.97878 4.93771L1.1063 8.81019C0.984764 8.93172 0.819929 9 0.648054 9C0.47618 9 0.311345 8.93172 0.189811 8.81019C0.068277 8.68866 5.67839e-09 8.52382 7.72797e-09 8.35195C9.77756e-09 8.18007 0.068277 8.01524 0.189811 7.8937L3.6105 4.47946L0.196265 1.06523C0.0905294 0.941758 0.0352778 0.782938 0.0415519 0.620502C0.0478261 0.458068 0.115164 0.303982 0.230109 0.189037C0.345053 0.0740929 0.499138 0.00675583 0.661574 0.000481613C0.824009 -0.00579261 0.982829 0.0494576 1.1063 0.155193L4.97878 4.02768C5.09801 4.14789 5.16524 4.31015 5.16595 4.47946Z" fill="currentColor"/>
  </symbol>
</svg>